HIERARCHY
ROOT joint_Root
{
	OFFSET 0.0 0.0 0.0
	CHANNELS 6 Xposition Yposition Zposition Zrotation Xrotation Yrotation 
	JOINT Hips
	{
		OFFSET -0.726466 93.3139 -2.00062
		CHANNELS 6 Xposition Yposition Zposition Zrotation Xrotation Yrotation 
		JOINT Spine
		{
			OFFSET 15.7357 0.0 0.0
			CHANNELS 6 Xposition Yposition Zposition Zrotation Xrotation Yrotation 
			JOINT Chest
			{
				OFFSET 8.98455 -0.406207 0.0
				CHANNELS 6 Xposition Yposition Zposition Zrotation Xrotation Yrotation 
				JOINT Neck
				{
					OFFSET 16.3773 0.0 0.0
					CHANNELS 6 Xposition Yposition Zposition Zrotation Xrotation Yrotation 
					JOINT Head
					{
						OFFSET 6.45672 0.0 0.0
						CHANNELS 6 Xposition Yposition Zposition Zrotation Xrotation Yrotation 
						End Site
						{
							OFFSET 0.0 0.0 0.0
						}
					}
				}
				JOINT Shoulder_L
				{
					OFFSET 12.9942 -0.242716 4.98039
					CHANNELS 6 Xposition Yposition Zposition Zrotation Xrotation Yrotation 
					JOINT UpperArm_L
					{
						OFFSET 5.34809 0.0 0.0
						CHANNELS 6 Xposition Yposition Zposition Zrotation Xrotation Yrotation 
						JOINT LowerArm_L
						{
							OFFSET 24.3286 1.87007e-05 0.0
							CHANNELS 6 Xposition Yposition Zposition Zrotation Xrotation Yrotation 
							JOINT Hand_L
							{
								OFFSET 22.2916 0.0 0.0
								CHANNELS 6 Xposition Yposition Zposition Zrotation Xrotation Yrotation 
								End Site
								{
									OFFSET 0.0 0.0 0.0
								}
							}
						}
					}
				}
				JOINT Shoulder_R
				{
					OFFSET 12.9945 -0.242716 -4.98039
					CHANNELS 6 Xposition Yposition Zposition Zrotation Xrotation Yrotation 
					JOINT UpperArm_R
					{
						OFFSET -5.34813 0.0 0.0
						CHANNELS 6 Xposition Yposition Zposition Zrotation Xrotation Yrotation 
						JOINT LowerArm_R
						{
							OFFSET -24.3289 0.000322201 0.0
							CHANNELS 6 Xposition Yposition Zposition Zrotation Xrotation Yrotation 
							JOINT Hand_R
							{
								OFFSET -22.2915 -0.000108084 0.0
								CHANNELS 6 Xposition Yposition Zposition Zrotation Xrotation Yrotation 
								End Site
								{
									OFFSET 0.0 0.0 0.0
								}
							}
						}
					}
				}
			}
		}
		JOINT UpperLeg_L
		{
			OFFSET -2.19248 -6.46944 0.0
			CHANNELS 6 Xposition Yposition Zposition Zrotation Xrotation Yrotation 
			JOINT LowerLeg_L
			{
				OFFSET 39.0811 0.0 -1.23785e-05
				CHANNELS 6 Xposition Yposition Zposition Zrotation Xrotation Yrotation 
				JOINT Foot_L
				{
					OFFSET 40.9854 0.0 -1.26872e-05
					CHANNELS 6 Xposition Yposition Zposition Zrotation Xrotation Yrotation 
					JOINT Toes_L
					{
						OFFSET 11.7543 0.0 0.0
						CHANNELS 6 Xposition Yposition Zposition Zrotation Xrotation Yrotation 
						End Site
						{
							OFFSET 0.0 0.0 0.0
						}
					}
				}
			}
		}
		JOINT UpperLeg_R
		{
			OFFSET -2.19251 6.46944 0.0
			CHANNELS 6 Xposition Yposition Zposition Zrotation Xrotation Yrotation 
			JOINT LowerLeg_R
			{
				OFFSET -39.0811 -0.00228153 -0.0401928
				CHANNELS 6 Xposition Yposition Zposition Zrotation Xrotation Yrotation 
				JOINT Foot_R
				{
					OFFSET -40.9854 0.0 0.0
					CHANNELS 6 Xposition Yposition Zposition Zrotation Xrotation Yrotation 
					JOINT Toes_R
					{
						OFFSET -11.7543 0.0 0.0
						CHANNELS 6 Xposition Yposition Zposition Zrotation Xrotation Yrotation 
						End Site
						{
							OFFSET 0.0 0.0 0.0
						}
					}
				}
			}
		}
	}
}
MOTION
Frames:	4
Frame Time:	0.0333333
0.000000 0.000000 0.000000 0.000000 0.000000 -0.000000 -1.562100 92.904100 -0.897493 89.127200 -2.192380 2.028600 15.735700 0.000005 -0.000001 96.103500 86.585800 -96.004200 8.984550 -0.406207 -0.000000 -0.976905 0.718305 0.204680 16.377300 -0.000001 -0.000001 3.386350 -2.211130 3.673850 6.456720 -0.000001 -0.000000 8.030720 -1.226240 -3.749630 12.994200 -0.242716 4.980390 -90.466600 1.370670 -71.199200 5.348090 -0.000007 -0.000001 -69.549900 38.647300 -9.555920 24.328600 0.000019 0.000005 3.267150 8.000610 -22.300000 22.291600 -0.000001 0.000005 3.961590 5.493010 -6.254260 12.994500 -0.242716 -4.980390 87.518400 7.867590 -72.431600 -5.348130 -0.000001 -0.000004 -65.600800 37.174200 -10.812500 -24.328900 0.000322 -0.000009 5.015460 12.810100 -21.597700 -22.291500 -0.000108 -0.000004 5.746840 5.308700 -0.167694 -2.192480 -6.469440 -0.000000 -175.759000 -7.379230 -2.033950 39.081100 -0.000007 -0.000012 -0.076375 0.251139 16.915100 40.985400 -0.000006 -0.000013 -1.609830 2.833470 -62.860700 11.754300 -0.000000 0.000003 -0.000001 -0.000014 -16.578000 -2.192510 6.469440 -0.000001 179.392000 10.501400 -179.232000 -39.081100 -0.002282 -0.040193 -0.047410 0.202896 14.041000 -40.985400 0.000008 0.000006 1.516360 6.656200 -63.138000 -11.754300 -0.000006 -0.000006 -0.003681 -0.048076 -18.528500
0.000000 0.000000 0.000000 0.000000 0.000000 -0.000000 -1.531210 92.923600 -0.941721 89.099000 -2.459480 1.978680 15.735700 0.000005 -0.000001 96.390200 86.585300 -96.305900 8.984550 -0.406207 -0.000000 -0.979576 0.753531 0.174926 16.377300 -0.000001 -0.000001 3.329600 -2.284570 3.671040 6.456720 -0.000001 -0.000000 7.777480 -1.282770 -3.834130 12.994200 -0.242716 4.980390 -90.455700 1.336610 -71.172900 5.348090 -0.000007 -0.000001 -69.672800 38.510100 -9.433410 24.328600 0.000019 0.000005 3.278220 8.008840 -22.347800 22.291600 -0.000001 0.000005 3.932720 5.493440 -6.271170 12.994500 -0.242716 -4.980390 87.473500 7.927650 -72.259500 -5.348130 -0.000001 -0.000004 -64.954700 36.006800 -11.175500 -24.328900 0.000322 -0.000009 6.264700 14.371900 -23.858500 -22.291500 -0.000108 -0.000004 2.264090 5.279640 0.654249 -2.192480 -6.469440 -0.000000 -175.760000 -7.615260 -2.013720 39.081100 -0.000007 -0.000012 -0.074663 0.247483 16.787900 40.985400 -0.000006 -0.000013 -1.593640 2.770310 -62.787800 11.754300 -0.000000 0.000003 -0.000000 -0.000007 -16.577700 -2.192510 6.469440 -0.000001 179.390000 10.510300 -179.254000 -39.081100 -0.002282 -0.040193 -0.044477 0.193446 13.882100 -40.985400 0.000008 0.000006 1.573180 6.988170 -63.015400 -11.754300 -0.000006 -0.000006 -0.003874 -0.050119 -18.611700
0.000000 0.000000 0.000000 0.000000 0.000000 -0.000000 -1.476380 92.935600 -1.026900 89.042400 -2.852390 1.860860 15.735700 0.000005 -0.000001 96.225200 86.595500 -96.143700 8.984550 -0.406207 -0.000000 -0.997700 0.731959 0.169307 16.377300 -0.000001 -0.000001 3.201770 -2.210910 3.583360 6.456720 -0.000001 -0.000000 7.391620 -1.172890 -4.025960 12.994200 -0.242716 4.980390 -90.452900 1.323060 -71.101400 5.348090 -0.000007 -0.000001 -69.785900 38.325200 -9.245430 24.328600 0.000019 0.000005 3.309800 8.032650 -22.482200 22.291600 -0.000001 0.000005 3.904400 5.491730 -6.203610 12.994500 -0.242716 -4.980390 87.392700 8.029270 -71.943200 -5.348130 -0.000001 -0.000004 -64.075400 32.875200 -11.618500 -24.328900 0.000322 -0.000009 7.915100 14.704900 -28.714000 -22.291500 -0.000108 -0.000004 -0.488917 5.244120 1.588950 -2.192480 -6.469440 -0.000000 -175.750000 -7.978330 -2.130540 39.081100 -0.000007 -0.000012 -0.073518 0.243695 16.787500 40.985400 -0.000006 -0.000013 -1.563000 2.706610 -62.764300 11.754300 -0.000000 0.000003 -0.000000 -0.000008 -16.577800 -2.192510 6.469440 -0.000001 179.408000 10.462000 -179.425000 -39.081100 -0.002282 -0.040193 -0.044985 0.196710 13.800400 -40.985400 0.000008 0.000006 1.521020 7.358650 -62.871900 -11.754300 -0.000006 -0.000006 -0.004017 -0.051615 -18.672700
0.000000 0.000000 0.000000 0.000000 0.000000 -0.000000 -1.383650 92.962100 -1.109550 88.980700 -3.534470 1.764150 15.735700 0.000005 -0.000001 95.921500 86.589000 -95.824900 8.984550 -0.406207 -0.000000 -0.981108 0.696282 0.199121 16.377300 -0.000001 -0.000001 3.091670 -1.947880 3.414070 6.456720 -0.000001 -0.000000 6.861420 -0.762048 -4.305360 12.994200 -0.242716 4.980390 -90.457100 1.323900 -70.952000 5.348090 -0.000007 -0.000001 -69.986300 38.035800 -8.969220 24.328600 0.000019 0.000005 3.356380 8.116120 -22.558000 22.291600 -0.000001 0.000005 3.810630 5.489190 -6.104000 12.994500 -0.242716 -4.980390 87.350200 7.991540 -71.588100 -5.348130 -0.000001 -0.000004 -63.083000 28.570000 -12.403600 -24.328900 0.000322 -0.000009 8.913130 12.473700 -35.990500 -22.291500 -0.000108 -0.000004 0.399309 5.246410 1.535790 -2.192480 -6.469440 -0.000000 -175.780000 -8.283730 -2.117090 39.081100 -0.000007 -0.000012 -0.072302 0.241899 16.641000 40.985400 -0.000006 -0.000013 -1.556240 2.328090 -62.700500 11.754300 -0.000000 0.000003 -0.000000 -0.000004 -16.577600 -2.192510 6.469440 -0.000001 179.420000 10.301600 -179.556000 -39.081100 -0.002282 -0.040193 -0.041764 0.185770 13.644800 -40.985400 0.000008 0.000006 1.657130 7.834720 -62.701800 -11.754300 -0.000006 -0.000006 -0.003901 -0.050405 -18.623400
